<?xml version="1.0" encoding="UTF-8"?>
<!DOCTYPE svg PUBLIC "-//W3C//DTD SVG 1.1//EN" "http://www.w3.org/Graphics/SVG/1.1/DTD/svg11.dtd">
<svg xmlns="http://www.w3.org/2000/svg" version="1.1" width="512px" height="512px" style="shape-rendering:geometricPrecision; text-rendering:geometricPrecision; image-rendering:optimizeQuality; fill-rule:evenodd; clip-rule:evenodd" xmlns:xlink="http://www.w3.org/1999/xlink">
<g><path style="opacity:0.988" fill="#000000" d="M 274.5,-0.5 C 275.167,-0.5 275.833,-0.5 276.5,-0.5C 283.879,8.45536 288.045,18.7887 289,30.5C 289.667,39.8333 289.667,49.1667 289,58.5C 285.897,78.6129 283.397,98.7795 281.5,119C 281.288,139.61 285.788,159.11 295,177.5C 322.516,214.727 352.85,217.06 386,184.5C 396.61,171.612 405.443,157.612 412.5,142.5C 447.032,202.3 461.199,266.633 455,335.5C 450.926,374.095 436.926,408.428 413,438.5C 388.267,469.74 357.434,492.74 320.5,507.5C 320.167,507.167 319.833,506.833 319.5,506.5C 334.313,481.298 337.479,454.632 329,426.5C 324.219,409.937 316.553,394.937 306,381.5C 295.579,370.417 285.912,358.75 277,346.5C 269.278,333.23 265.611,318.897 266,303.5C 244.929,321.974 233.095,345.307 230.5,373.5C 231.58,385.15 231.747,396.817 231,408.5C 229.565,424.256 221.065,430.423 205.5,427C 196.311,423.812 188.811,418.312 183,410.5C 171.24,450.724 181.406,484.39 213.5,511.5C 211.833,511.5 210.167,511.5 208.5,511.5C 157.066,498.892 117.233,470.226 89,425.5C 75.3803,402.926 65.0469,378.926 58,353.5C 51.5963,314.628 52.9296,275.961 62,237.5C 64.0851,229.33 67.7518,221.996 73,215.5C 77.5093,234.844 85.5093,252.511 97,268.5C 107.453,280.743 120.62,285.243 136.5,282C 153.625,278.209 165.125,268.042 171,251.5C 175.133,238.124 176.467,224.458 175,210.5C 173.261,193.202 172.094,175.868 171.5,158.5C 169.778,120.772 184.778,91.9387 216.5,72C 226.041,66.7297 235.708,61.7297 245.5,57C 257.803,49.6996 265.969,39.1996 270,25.5C 272.043,16.9051 273.543,8.23844 274.5,-0.5 Z"/></g>
</svg>
