<?xml version="1.0" encoding="UTF-8"?>
<!DOCTYPE svg PUBLIC "-//W3C//DTD SVG 1.1//EN" "http://www.w3.org/Graphics/SVG/1.1/DTD/svg11.dtd">
<svg xmlns="http://www.w3.org/2000/svg" version="1.1" width="512px" height="512px" style="shape-rendering:geometricPrecision; text-rendering:geometricPrecision; image-rendering:optimizeQuality; fill-rule:evenodd; clip-rule:evenodd" xmlns:xlink="http://www.w3.org/1999/xlink">
<g><path style="opacity:0.982" fill="#000000" d="M -0.5,39.5 C 52.4689,49.9514 105.302,60.9514 158,72.5C 158.833,110.504 158.667,148.504 157.5,186.5C 146.272,183.654 134.938,181.321 123.5,179.5C 122.611,154.538 110.277,138.371 86.5,131C 61.5368,127.315 43.2035,136.648 31.5,159C 20.847,157.371 10.1804,155.537 -0.5,153.5C -0.5,115.5 -0.5,77.5 -0.5,39.5 Z"/></g>
<g><path style="opacity:0.982" fill="#000000" d="M 321.5,44.5 C 323.5,44.5 325.5,44.5 327.5,44.5C 327.5,82.1667 327.5,119.833 327.5,157.5C 281.037,166.526 234.704,176.193 188.5,186.5C 187.333,148.838 187.167,111.171 188,73.5C 232.634,64.008 277.134,54.3414 321.5,44.5 Z"/></g>
<g><path style="opacity:0.989" fill="#000000" d="M 511.5,78.5 C 511.5,115.833 511.5,153.167 511.5,190.5C 460.039,180.468 408.705,169.802 357.5,158.5C 356.5,121.173 356.167,83.8393 356.5,46.5C 408.117,57.4234 459.784,68.09 511.5,78.5 Z"/></g>
<g><path style="opacity:0.937" fill="#000000" d="M 72.5,158.5 C 91.1817,160.011 97.6817,169.677 92,187.5C 83.7552,197.273 74.2552,198.773 63.5,192C 56.5247,183.803 55.6914,174.97 61,165.5C 64.2635,162.037 68.0968,159.704 72.5,158.5 Z"/></g>
<g><path style="opacity:0.976" fill="#000000" d="M -0.5,182.5 C 9.57491,184.519 19.5749,186.852 29.5,189.5C 34.6765,205.343 45.0098,216.343 60.5,222.5C 61.4993,237.485 61.8327,252.485 61.5,267.5C 71.1667,267.5 80.8333,267.5 90.5,267.5C 90.1673,252.485 90.5007,237.485 91.5,222.5C 100.27,218.888 107.77,213.554 114,206.5C 128.8,209.742 143.633,212.742 158.5,215.5C 158.5,250.167 158.5,284.833 158.5,319.5C 105.418,308.884 52.4183,297.884 -0.5,286.5C -0.5,251.833 -0.5,217.167 -0.5,182.5 Z"/></g>
<g><path style="opacity:0.981" fill="#000000" d="M 324.5,186.5 C 325.5,186.5 326.5,186.5 327.5,186.5C 327.833,221.173 327.5,255.84 326.5,290.5C 280.261,300.643 233.927,310.31 187.5,319.5C 187.5,284.833 187.5,250.167 187.5,215.5C 233.418,206.451 279.085,196.784 324.5,186.5 Z"/></g>
<g><path style="opacity:0.982" fill="#000000" d="M 511.5,220.5 C 511.5,255.167 511.5,289.833 511.5,324.5C 500.767,322.483 490.1,320.15 479.5,317.5C 483.07,288.239 470.737,269.406 442.5,261C 413.527,258.479 394.527,270.979 385.5,298.5C 375.931,296.024 366.264,294.024 356.5,292.5C 356.5,257.833 356.5,223.167 356.5,188.5C 408.22,198.911 459.887,209.577 511.5,220.5 Z"/></g>
<g><path style="opacity:0.938" fill="#000000" d="M 427.5,289.5 C 446.751,288.659 454.251,297.659 450,316.5C 443.268,326.298 434.435,328.798 423.5,324C 413.846,316.513 412.013,307.347 418,296.5C 420.529,293.115 423.696,290.782 427.5,289.5 Z"/></g>
<g><path style="opacity:0.986" fill="#000000" d="M -0.5,316.5 C 52.5327,327.342 105.533,338.342 158.5,349.5C 158.833,388.172 158.5,426.839 157.5,465.5C 104.962,453.865 52.2948,442.865 -0.5,432.5C -0.5,393.833 -0.5,355.167 -0.5,316.5 Z"/></g>
<g><path style="opacity:0.982" fill="#000000" d="M 323.5,320.5 C 324.833,320.5 326.167,320.5 327.5,320.5C 327.667,359.168 327.5,397.835 327,436.5C 280.695,446.628 234.361,456.628 188,466.5C 187.167,427.496 187.333,388.496 188.5,349.5C 233.645,339.939 278.645,330.273 323.5,320.5 Z"/></g>
<g><path style="opacity:0.984" fill="#000000" d="M 511.5,354.5 C 511.5,393.5 511.5,432.5 511.5,471.5C 459.784,461.09 408.117,450.423 356.5,439.5C 356.167,400.161 356.5,360.828 357.5,321.5C 368.475,324.062 379.475,326.562 390.5,329C 396.682,340.689 406.015,348.522 418.5,352.5C 418.5,368.167 418.5,383.833 418.5,399.5C 428.167,399.5 437.833,399.5 447.5,399.5C 447.5,383.833 447.5,368.167 447.5,352.5C 453.673,350.496 459.506,347.829 465,344.5C 480.582,347.649 496.082,350.982 511.5,354.5 Z"/></g>
</svg>
