<?xml version="1.0" encoding="UTF-8"?>
<!DOCTYPE svg PUBLIC "-//W3C//DTD SVG 1.1//EN" "http://www.w3.org/Graphics/SVG/1.1/DTD/svg11.dtd">
<svg xmlns="http://www.w3.org/2000/svg" version="1.1" width="512px" height="512px" style="shape-rendering:geometricPrecision; text-rendering:geometricPrecision; image-rendering:optimizeQuality; fill-rule:evenodd; clip-rule:evenodd" xmlns:xlink="http://www.w3.org/1999/xlink">
<g><path style="opacity:0.952" fill="#000000" d="M 78.5,-0.5 C 79.5,-0.5 80.5,-0.5 81.5,-0.5C 87.964,6.46486 94.6307,13.2982 101.5,20C 74.3333,47.1667 47.1667,74.3333 20,101.5C 13.2982,94.6307 6.46486,87.964 -0.5,81.5C -0.5,80.5 -0.5,79.5 -0.5,78.5C 26.1667,52.5 52.5,26.1667 78.5,-0.5 Z"/></g>
<g><path style="opacity:0.985" fill="#000000" d="M 400.5,-0.5 C 409.833,-0.5 419.167,-0.5 428.5,-0.5C 438.633,1.21193 448.3,4.54526 457.5,9.5C 446.181,21.3193 434.681,32.986 423,44.5C 410.809,63.1112 413.642,78.9445 431.5,92C 443.405,97.3664 454.738,96.3664 465.5,89C 477.347,76.9858 489.347,65.1525 501.5,53.5C 506.454,62.6978 509.787,72.3644 511.5,82.5C 511.5,91.8333 511.5,101.167 511.5,110.5C 501.432,159.064 471.765,186.898 422.5,194C 414.464,194.665 406.464,194.331 398.5,193C 390.759,191.299 383.092,189.633 375.5,188C 313,250.5 250.5,313 188,375.5C 200.731,412.388 195.398,446.388 172,477.5C 155.559,496.301 135.059,507.634 110.5,511.5C 101.5,511.5 92.5,511.5 83.5,511.5C 73.0693,509.719 63.0693,506.386 53.5,501.5C 65.4858,489.014 77.6525,476.681 90,464.5C 99.8816,447.368 97.0483,432.535 81.5,420C 67.311,412.731 54.311,414.397 42.5,425C 31.6667,435.833 20.8333,446.667 10,457.5C 4.63622,447.353 1.13622,436.686 -0.5,425.5C -0.5,418.167 -0.5,410.833 -0.5,403.5C 5.85092,362.641 28.5176,335.141 67.5,321C 79.9307,317.363 92.5974,316.029 105.5,317C 115.719,318.393 125.719,320.393 135.5,323C 198.5,260 261.5,197 324.5,134C 308.567,88.8125 318.567,50.4791 354.5,19C 368.392,8.88123 383.726,2.38123 400.5,-0.5 Z"/></g>
<g><path style="opacity:0.951" fill="#000000" d="M 121.5,40.5 C 128.965,47.4641 136.298,54.6308 143.5,62C 116.333,89.1667 89.1667,116.333 62,143.5C 54.8333,136.333 47.6667,129.167 40.5,122C 67.7015,94.9653 94.7015,67.7987 121.5,40.5 Z"/></g>
<g><path style="opacity:0.98" fill="#000000" d="M 163.5,82.5 C 192.299,110.798 220.965,139.298 249.5,168C 223.014,195.652 196.014,222.819 168.5,249.5C 139.68,221.18 111.014,192.68 82.5,164C 109.702,136.965 136.702,109.799 163.5,82.5 Z"/></g>
<g><path style="opacity:0.979" fill="#000000" d="M 342.5,261.5 C 373.146,291.479 403.479,321.812 433.5,352.5C 426.095,356.199 418.428,359.533 410.5,362.5C 406.113,374.503 401.447,386.336 396.5,398C 384.912,402.473 373.245,406.64 361.5,410.5C 359.308,417.91 356.808,425.243 354,432.5C 353.577,433.956 352.744,434.456 351.5,434C 321.889,403.388 291.889,373.055 261.5,343C 288.702,315.965 315.702,288.799 342.5,261.5 Z"/></g>
<g><path style="opacity:0.963" fill="#000000" d="M 456.5,375.5 C 461.798,380.297 466.965,385.297 472,390.5C 476.845,403.693 480.845,417.026 484,430.5C 466.167,448.333 448.333,466.167 430.5,484C 416.625,481.045 402.959,477.045 389.5,472C 384.454,467.289 379.787,462.289 375.5,457C 378.137,449.422 380.97,441.922 384,434.5C 395.622,429.289 407.455,424.456 419.5,420C 424.067,408.134 428.733,396.301 433.5,384.5C 441.345,381.668 449.012,378.668 456.5,375.5 Z"/></g>
<g><path style="opacity:0.924" fill="#000000" d="M 511.5,508.5 C 511.5,509.5 511.5,510.5 511.5,511.5C 510.5,511.5 509.5,511.5 508.5,511.5C 493.312,506.27 477.979,501.104 462.5,496C 461.044,495.577 460.544,494.744 461,493.5C 472.014,482.319 483.181,471.319 494.5,460.5C 500.194,476.589 505.861,492.589 511.5,508.5 Z"/></g>
</svg>
