<?xml version="1.0" encoding="UTF-8"?>
<!DOCTYPE svg PUBLIC "-//W3C//DTD SVG 1.1//EN" "http://www.w3.org/Graphics/SVG/1.1/DTD/svg11.dtd">
<svg xmlns="http://www.w3.org/2000/svg" version="1.1" width="512px" height="512px" style="shape-rendering:geometricPrecision; text-rendering:geometricPrecision; image-rendering:optimizeQuality; fill-rule:evenodd; clip-rule:evenodd" xmlns:xlink="http://www.w3.org/1999/xlink">
<g><path style="opacity:0.954" fill="#000000" d="M 233.5,-0.5 C 240.833,-0.5 248.167,-0.5 255.5,-0.5C 255.819,9.74914 255.486,19.9158 254.5,30C 242.789,30.3354 231.123,31.1687 219.5,32.5C 217.941,22.8112 216.274,13.1445 214.5,3.5C 215.025,2.80762 215.692,2.30762 216.5,2C 222.348,1.41096 228.014,0.57763 233.5,-0.5 Z"/></g>
<g><path style="opacity:0.979" fill="#000000" d="M 511.5,233.5 C 511.5,248.167 511.5,262.833 511.5,277.5C 500.906,367.555 456.572,435.388 378.5,481C 346.722,497.855 313.055,508.022 277.5,511.5C 262.833,511.5 248.167,511.5 233.5,511.5C 143.445,500.906 75.612,456.572 30,378.5C 13.1449,346.722 2.97822,313.055 -0.5,277.5C -0.5,262.833 -0.5,248.167 -0.5,233.5C 5.91792,170.375 31.5846,116.542 76.5,72C 55.5026,71.5 34.5026,71.3334 13.5,71.5C 13.1915,61.4473 13.5248,51.4473 14.5,41.5C 53.4943,40.5001 92.4943,40.1668 131.5,40.5C 131.167,60.178 131.5,79.8446 132.5,99.5C 187.842,58.2002 248.842,47.0335 315.5,66C 391.503,93.478 437.003,146.978 452,226.5C 460.243,297.787 438.077,357.62 385.5,406C 322.071,456.403 252.404,467.07 176.5,438C 100.748,401.222 60.7475,340.555 56.5,256C 57.1525,209.503 71.6525,168.003 100,131.5C 100.667,118.5 100.667,105.5 100,92.5C 54.6764,137.17 31.1764,191.504 29.5,255.5C 32.7611,337.816 68.4278,401.649 136.5,447C 215.833,493 295.167,493 374.5,447C 442.572,401.649 478.239,337.816 481.5,255.5C 477.557,170.071 439.557,104.904 367.5,60C 341.725,45.7427 314.391,36.0761 285.5,31C 287.581,21.2692 289.248,11.4359 290.5,1.5C 387.207,17.7233 455.04,70.7233 494,160.5C 503.099,184.185 508.932,208.518 511.5,233.5 Z M 179.5,178.5 C 199.212,175.872 217.212,180.038 233.5,191C 248.546,207.475 250.379,225.309 239,244.5C 235.167,248.333 231.333,252.167 227.5,256C 213.667,264.082 200,272.416 186.5,281C 181.018,285.315 176.018,290.149 171.5,295.5C 197.491,296.5 223.491,296.833 249.5,296.5C 249.5,306.5 249.5,316.5 249.5,326.5C 208.5,326.5 167.5,326.5 126.5,326.5C 125.331,304.481 132.998,286.314 149.5,272C 153.833,269 158.167,266 162.5,263C 175.488,256.507 188.155,249.507 200.5,242C 211.596,233.546 212.93,223.88 204.5,213C 189.262,204.953 174.596,205.953 160.5,216C 156.333,218.833 152.833,222.333 150,226.5C 142.48,218.615 135.313,210.448 128.5,202C 143.299,189.265 160.299,181.432 179.5,178.5 Z M 352.5,180.5 C 360.167,180.5 367.833,180.5 375.5,180.5C 375.5,217.167 375.5,253.833 375.5,290.5C 383.167,290.5 390.833,290.5 398.5,290.5C 398.5,300.5 398.5,310.5 398.5,320.5C 390.833,320.5 383.167,320.5 375.5,320.5C 375.5,333.5 375.5,346.5 375.5,359.5C 364.167,359.5 352.833,359.5 341.5,359.5C 341.5,346.5 341.5,333.5 341.5,320.5C 316.5,320.5 291.5,320.5 266.5,320.5C 266.049,310.062 266.549,299.729 268,289.5C 296.382,253.291 324.548,216.958 352.5,180.5 Z"/></g>
<g><path style="opacity:0.932" fill="#000000" d="M 184.5,8.5 C 185.117,8.61071 185.617,8.94404 186,9.5C 189.138,19.0492 191.471,28.7158 193,38.5C 182.431,41.9115 172.098,45.9115 162,50.5C 157.696,41.3928 153.53,32.2262 149.5,23C 150.444,21.5232 151.777,20.5232 153.5,20C 163.75,15.6425 174.084,11.8092 184.5,8.5 Z"/></g>
<g><path style="opacity:0.956" fill="#000000" d="M 344.5,231.5 C 345.497,250.993 345.83,270.66 345.5,290.5C 330.496,290.667 315.496,290.5 300.5,290C 315.408,270.605 330.074,251.105 344.5,231.5 Z"/></g>
</svg>
